<?xml version="1.0" encoding="utf-8"?>
<!-- Generator: Adobe Illustrator 22.0.1, SVG Export Plug-In . SVG Version: 6.00 Build 0)  -->
<svg version="1.1" id="Layer_1" xmlns="http://www.w3.org/2000/svg" xmlns:xlink="http://www.w3.org/1999/xlink" x="0px" y="0px"
	 viewBox="0 0 24 24" style="enable-background:new 0 0 24 24;" xml:space="preserve">
<style type="text/css">
	.st0{display:none;}
	.st1{display:inline;}
	.st2{display:none;fill:#0075FB;enable-background:new    ;}
	.st3{fill:#0075FB;enable-background:new    ;}
	.st4{fill:#FFFFFF;}
</style>
<title>xxxhdpi/fb-logo</title>
<desc>Created with Sketch.</desc>
<g id="Page-1" class="st0">
	<g id="signup" transform="translate(-80.000000, -373.000000)" class="st1">
		
			<image style="overflow:visible;enable-background:new    ;" width="270" height="270" id="fb-logo" xlink:href="89E83C53.png"  transform="matrix(0.1074 0 0 0.1074 39.3246 370.5)">
		</image>
	</g>
</g>
<circle class="st2" cx="12" cy="12" r="14.5"/>
<g>
	<circle class="st3" cx="12" cy="12" r="12"/>
</g>
<path class="st4" d="M9.9,9.5v2.6h-3v3.5h3v8.2c0.7,0.1,1.4,0.2,2.1,0.2c0.5,0,1,0,1.5-0.1v-8.2h3l0.5-3.5h-3.5V9.9
	c0-1,0.3-1.7,1.7-1.7h1.9V5c-0.3,0-1.4-0.1-2.7-0.1C11.7,4.9,9.9,6.5,9.9,9.5z"/>
</svg>
